<mxfile host="app.diagrams.net" agent="Mozilla/5.0 (Windows NT 10.0; Win64; x64) AppleWebKit/537.36 (KHTML, like Gecko) Chrome/138.0.0.0 Safari/537.36" version="28.0.4">
  <diagram name="Pagina-1" id="GpQkds5PHMVd2nUPitJu">
    <mxGraphModel dx="1303" dy="659" grid="1" gridSize="10" guides="1" tooltips="1" connect="1" arrows="1" fold="1" page="1" pageScale="1" pageWidth="2339" pageHeight="3300" math="0" shadow="0">
      <root>
        <mxCell id="0" />
        <mxCell id="1" parent="0" />
        <mxCell id="rX_9IOprKiA6ynC60MBY-1" value="&lt;font face=&quot;Times New Roman&quot;&gt;&lt;i&gt;Node&lt;span style=&quot;font-size: 10px;&quot;&gt;&lt;sub&gt;2&lt;/sub&gt;&lt;/span&gt;&lt;/i&gt;&lt;/font&gt;" style="shape=umlActor;verticalLabelPosition=bottom;verticalAlign=top;html=1;outlineConnect=0;" vertex="1" parent="1">
          <mxGeometry x="720" y="339" width="30" height="60" as="geometry" />
        </mxCell>
        <mxCell id="rX_9IOprKiA6ynC60MBY-4" value="&lt;font face=&quot;Times New Roman&quot;&gt;&lt;i&gt;Node&lt;sub&gt;1&lt;/sub&gt;&lt;/i&gt;&lt;/font&gt;" style="shape=umlActor;verticalLabelPosition=bottom;verticalAlign=top;html=1;outlineConnect=0;" vertex="1" parent="1">
          <mxGeometry x="290" y="339" width="30" height="60" as="geometry" />
        </mxCell>
        <mxCell id="rX_9IOprKiA6ynC60MBY-5" value="" style="rounded=1;whiteSpace=wrap;html=1;fillColor=#dae8fc;strokeColor=#6c8ebf;" vertex="1" parent="1">
          <mxGeometry x="460" y="294" width="120" height="150" as="geometry" />
        </mxCell>
        <mxCell id="rX_9IOprKiA6ynC60MBY-6" value="Smart Contract" style="text;html=1;align=center;verticalAlign=middle;whiteSpace=wrap;rounded=0;fontFamily=Times New Roman;fontStyle=3;fontSize=14;" vertex="1" parent="1">
          <mxGeometry x="470" y="267" width="100" height="30" as="geometry" />
        </mxCell>
        <mxCell id="rX_9IOprKiA6ynC60MBY-7" value="Rules&amp;amp;Conditions{&lt;div&gt;&lt;br&gt;&lt;div&gt;&lt;span style=&quot;white-space: pre;&quot;&gt;&#x9;&lt;/span&gt;...&lt;/div&gt;&lt;div&gt;&lt;br&gt;&lt;/div&gt;&lt;div&gt;}&lt;/div&gt;&lt;/div&gt;" style="text;html=1;align=left;verticalAlign=middle;whiteSpace=wrap;rounded=0;fontFamily=Times New Roman;" vertex="1" parent="1">
          <mxGeometry x="470" y="339" width="60" height="30" as="geometry" />
        </mxCell>
        <mxCell id="rX_9IOprKiA6ynC60MBY-9" value="" style="endArrow=none;dashed=1;html=1;rounded=0;" edge="1" parent="1">
          <mxGeometry width="50" height="50" relative="1" as="geometry">
            <mxPoint x="520" y="267" as="sourcePoint" />
            <mxPoint x="520" y="200" as="targetPoint" />
          </mxGeometry>
        </mxCell>
        <mxCell id="rX_9IOprKiA6ynC60MBY-10" value="" style="rounded=0;whiteSpace=wrap;html=1;" vertex="1" parent="1">
          <mxGeometry x="460" y="80" width="120" height="120" as="geometry" />
        </mxCell>
        <mxCell id="rX_9IOprKiA6ynC60MBY-11" value="State" style="text;html=1;align=center;verticalAlign=middle;whiteSpace=wrap;rounded=0;fontFamily=Times New Roman;fontStyle=2" vertex="1" parent="1">
          <mxGeometry x="490" y="53" width="60" height="30" as="geometry" />
        </mxCell>
        <mxCell id="rX_9IOprKiA6ynC60MBY-12" value="tokenId" style="text;html=1;align=center;verticalAlign=middle;whiteSpace=wrap;rounded=0;fontFamily=Times New Roman;" vertex="1" parent="1">
          <mxGeometry x="463" y="86" width="50" height="17" as="geometry" />
        </mxCell>
        <mxCell id="rX_9IOprKiA6ynC60MBY-13" value="owner address" style="text;html=1;align=center;verticalAlign=middle;whiteSpace=wrap;rounded=0;fontFamily=Times New Roman;" vertex="1" parent="1">
          <mxGeometry x="522" y="84" width="50" height="17" as="geometry" />
        </mxCell>
        <mxCell id="rX_9IOprKiA6ynC60MBY-14" value="" style="endArrow=none;html=1;rounded=0;exitX=0.5;exitY=1;exitDx=0;exitDy=0;entryX=0.5;entryY=0;entryDx=0;entryDy=0;" edge="1" parent="1">
          <mxGeometry width="50" height="50" relative="1" as="geometry">
            <mxPoint x="514" y="200" as="sourcePoint" />
            <mxPoint x="514" y="80" as="targetPoint" />
          </mxGeometry>
        </mxCell>
        <mxCell id="rX_9IOprKiA6ynC60MBY-15" value="" style="endArrow=none;html=1;rounded=0;entryX=1;entryY=0.25;entryDx=0;entryDy=0;exitX=0;exitY=0.25;exitDx=0;exitDy=0;" edge="1" parent="1">
          <mxGeometry width="50" height="50" relative="1" as="geometry">
            <mxPoint x="460" y="108" as="sourcePoint" />
            <mxPoint x="580" y="108" as="targetPoint" />
          </mxGeometry>
        </mxCell>
        <mxCell id="rX_9IOprKiA6ynC60MBY-16" value="0" style="text;html=1;align=center;verticalAlign=middle;whiteSpace=wrap;rounded=0;fontFamily=Times New Roman;" vertex="1" parent="1">
          <mxGeometry x="479" y="110" width="20" height="20" as="geometry" />
        </mxCell>
        <mxCell id="rX_9IOprKiA6ynC60MBY-17" value="0xAB12...F" style="text;html=1;align=center;verticalAlign=middle;whiteSpace=wrap;rounded=0;fontSize=11;fontFamily=Times New Roman;" vertex="1" parent="1">
          <mxGeometry x="538" y="110" width="20" height="20" as="geometry" />
        </mxCell>
        <mxCell id="rX_9IOprKiA6ynC60MBY-18" value="3" style="text;html=1;align=center;verticalAlign=middle;whiteSpace=wrap;rounded=0;fontFamily=Times New Roman;" vertex="1" parent="1">
          <mxGeometry x="479" y="130" width="20" height="20" as="geometry" />
        </mxCell>
        <mxCell id="rX_9IOprKiA6ynC60MBY-19" value="0xCD56...1" style="text;html=1;align=center;verticalAlign=middle;whiteSpace=wrap;rounded=0;fontSize=11;fontFamily=Times New Roman;" vertex="1" parent="1">
          <mxGeometry x="538" y="130" width="20" height="20" as="geometry" />
        </mxCell>
        <mxCell id="rX_9IOprKiA6ynC60MBY-22" value="..." style="text;html=1;align=center;verticalAlign=middle;whiteSpace=wrap;rounded=0;" vertex="1" parent="1">
          <mxGeometry x="479" y="153" width="20" height="20" as="geometry" />
        </mxCell>
        <mxCell id="rX_9IOprKiA6ynC60MBY-23" value="..." style="text;html=1;align=center;verticalAlign=middle;whiteSpace=wrap;rounded=0;fontFamily=Times New Roman;" vertex="1" parent="1">
          <mxGeometry x="537" y="154" width="20" height="20" as="geometry" />
        </mxCell>
        <mxCell id="rX_9IOprKiA6ynC60MBY-24" value="77" style="text;html=1;align=center;verticalAlign=middle;whiteSpace=wrap;rounded=0;fontFamily=Times New Roman;" vertex="1" parent="1">
          <mxGeometry x="479" y="177" width="20" height="20" as="geometry" />
        </mxCell>
        <mxCell id="rX_9IOprKiA6ynC60MBY-25" value="0xFF99...A" style="text;html=1;align=center;verticalAlign=middle;whiteSpace=wrap;rounded=0;fontSize=11;fontFamily=Times New Roman;" vertex="1" parent="1">
          <mxGeometry x="538" y="177" width="20" height="20" as="geometry" />
        </mxCell>
        <mxCell id="rX_9IOprKiA6ynC60MBY-32" value="" style="endArrow=classic;startArrow=classic;html=1;rounded=0;entryX=0.5;entryY=1;entryDx=0;entryDy=0;" edge="1" parent="1" target="rX_9IOprKiA6ynC60MBY-5">
          <mxGeometry width="50" height="50" relative="1" as="geometry">
            <mxPoint x="520" y="520" as="sourcePoint" />
            <mxPoint x="500" y="430" as="targetPoint" />
          </mxGeometry>
        </mxCell>
        <mxCell id="rX_9IOprKiA6ynC60MBY-33" value="Crea transazioni e le include in un blocco" style="text;html=1;align=center;verticalAlign=middle;whiteSpace=wrap;rounded=0;fontFamily=Times New Roman;" vertex="1" parent="1">
          <mxGeometry x="526" y="467" width="140" height="30" as="geometry" />
        </mxCell>
        <mxCell id="rX_9IOprKiA6ynC60MBY-47" value="" style="group" vertex="1" connectable="0" parent="1">
          <mxGeometry x="354" y="530" width="339" height="60" as="geometry" />
        </mxCell>
        <mxCell id="rX_9IOprKiA6ynC60MBY-34" value="" style="shape=cube;whiteSpace=wrap;html=1;boundedLbl=1;backgroundOutline=1;darkOpacity=0.05;darkOpacity2=0.1;" vertex="1" parent="rX_9IOprKiA6ynC60MBY-47">
          <mxGeometry width="60" height="60" as="geometry" />
        </mxCell>
        <mxCell id="rX_9IOprKiA6ynC60MBY-37" value="" style="shape=cube;whiteSpace=wrap;html=1;boundedLbl=1;backgroundOutline=1;darkOpacity=0.05;darkOpacity2=0.1;" vertex="1" parent="rX_9IOprKiA6ynC60MBY-47">
          <mxGeometry x="113" width="60" height="60" as="geometry" />
        </mxCell>
        <mxCell id="rX_9IOprKiA6ynC60MBY-39" style="edgeStyle=orthogonalEdgeStyle;rounded=0;orthogonalLoop=1;jettySize=auto;html=1;exitX=0;exitY=0;exitDx=60;exitDy=40;exitPerimeter=0;entryX=0;entryY=0;entryDx=0;entryDy=20;entryPerimeter=0;" edge="1" parent="rX_9IOprKiA6ynC60MBY-47" source="rX_9IOprKiA6ynC60MBY-34" target="rX_9IOprKiA6ynC60MBY-37">
          <mxGeometry relative="1" as="geometry" />
        </mxCell>
        <mxCell id="rX_9IOprKiA6ynC60MBY-41" value="" style="shape=cube;whiteSpace=wrap;html=1;boundedLbl=1;backgroundOutline=1;darkOpacity=0.05;darkOpacity2=0.1;" vertex="1" parent="rX_9IOprKiA6ynC60MBY-47">
          <mxGeometry x="226" width="60" height="60" as="geometry" />
        </mxCell>
        <mxCell id="rX_9IOprKiA6ynC60MBY-42" style="edgeStyle=orthogonalEdgeStyle;rounded=0;orthogonalLoop=1;jettySize=auto;html=1;exitX=0;exitY=0;exitDx=60;exitDy=40;exitPerimeter=0;entryX=0;entryY=0;entryDx=0;entryDy=20;entryPerimeter=0;" edge="1" parent="rX_9IOprKiA6ynC60MBY-47" target="rX_9IOprKiA6ynC60MBY-41">
          <mxGeometry relative="1" as="geometry">
            <mxPoint x="173" y="40" as="sourcePoint" />
          </mxGeometry>
        </mxCell>
        <mxCell id="rX_9IOprKiA6ynC60MBY-46" style="edgeStyle=orthogonalEdgeStyle;rounded=0;orthogonalLoop=1;jettySize=auto;html=1;exitX=0;exitY=0;exitDx=60;exitDy=40;exitPerimeter=0;entryX=0;entryY=0;entryDx=0;entryDy=20;entryPerimeter=0;" edge="1" parent="rX_9IOprKiA6ynC60MBY-47">
          <mxGeometry relative="1" as="geometry">
            <mxPoint x="286" y="40" as="sourcePoint" />
            <mxPoint x="339" y="20" as="targetPoint" />
          </mxGeometry>
        </mxCell>
        <mxCell id="rX_9IOprKiA6ynC60MBY-48" value="" style="endArrow=classic;html=1;rounded=0;entryX=0;entryY=0.5;entryDx=0;entryDy=0;" edge="1" parent="1" source="rX_9IOprKiA6ynC60MBY-4" target="rX_9IOprKiA6ynC60MBY-5">
          <mxGeometry width="50" height="50" relative="1" as="geometry">
            <mxPoint x="470" y="460" as="sourcePoint" />
            <mxPoint x="520" y="410" as="targetPoint" />
          </mxGeometry>
        </mxCell>
        <mxCell id="rX_9IOprKiA6ynC60MBY-49" value="" style="endArrow=classic;html=1;rounded=0;entryX=1;entryY=0.5;entryDx=0;entryDy=0;" edge="1" parent="1" source="rX_9IOprKiA6ynC60MBY-1" target="rX_9IOprKiA6ynC60MBY-5">
          <mxGeometry width="50" height="50" relative="1" as="geometry">
            <mxPoint x="470" y="460" as="sourcePoint" />
            <mxPoint x="520" y="410" as="targetPoint" />
          </mxGeometry>
        </mxCell>
        <mxCell id="rX_9IOprKiA6ynC60MBY-50" value="Blockchain" style="text;html=1;align=center;verticalAlign=middle;whiteSpace=wrap;rounded=0;fontFamily=Times New Roman;fontStyle=3;fontSize=14;" vertex="1" parent="1">
          <mxGeometry x="466" y="600" width="100" height="30" as="geometry" />
        </mxCell>
      </root>
    </mxGraphModel>
  </diagram>
</mxfile>
